<svg width="24" height="24" viewBox="0 0 24 24" fill="none" xmlns="http://www.w3.org/2000/svg">
<g clip-path="url(#clip0_98_910)">
<path d="M17.4511 6.68079C17.9602 6.17439 17.9602 5.34919 17.4511 4.84279L15.5782 2.96979L15.5809 2.97249C15.0852 2.47679 14.2331 1.62469 13.0274 0.421693C12.4594 -0.133007 11.5404 -0.127607 10.9776 0.435093L0.425967 10.9787C0.290979 11.1128 0.183848 11.2722 0.110742 11.4479C0.0376365 11.6235 0 11.8119 0 12.0022C0 12.1925 0.0376365 12.3808 0.110742 12.5565C0.183848 12.7322 0.290979 12.8916 0.425967 13.0257L10.975 23.5667C11.2469 23.8382 11.6155 23.9907 11.9998 23.9907C12.3841 23.9907 12.7527 23.8382 13.0247 23.5667L17.4485 19.1456C17.9575 18.6392 17.9575 17.8139 17.4485 17.3075C17.2039 17.0642 16.873 16.9276 16.5281 16.9276C16.1831 16.9276 15.8522 17.0642 15.6077 17.3075L12.2584 20.6621C12.1191 20.8015 11.902 20.8015 11.7627 20.6621L3.33587 12.2433C3.19647 12.104 3.19647 11.887 3.33587 11.7477L11.76 3.32889C11.7707 3.31809 11.7841 3.31009 11.7949 3.29939C11.9342 3.18949 12.1271 3.20019 12.2557 3.32889L15.6104 6.68089C16.1194 7.18989 16.9447 7.18979 17.4511 6.68079ZM9.20647 12.0558C9.20647 12.8105 9.50655 13.5343 10.0407 14.068C10.5749 14.6016 11.2993 14.9014 12.0547 14.9014C12.8101 14.9014 13.5346 14.6016 14.0687 14.068C14.6029 13.5343 14.903 12.8105 14.903 12.0558C14.903 11.3011 14.6029 10.5773 14.0687 10.0436C13.5346 9.50995 12.8101 9.21014 12.0547 9.21014C11.2993 9.21014 10.5749 9.50995 10.0407 10.0436C9.50655 10.5773 9.20647 11.3011 9.20647 12.0558ZM23.5737 11.0215L20.2807 7.74449C19.7715 7.23819 18.9463 7.23819 18.4399 7.74729C18.3188 7.86779 18.2228 8.011 18.1573 8.16871C18.0917 8.32641 18.058 8.49551 18.058 8.66629C18.058 8.83707 18.0917 9.00617 18.1573 9.16388C18.2228 9.32159 18.3188 9.4648 18.4399 9.58529L20.6638 11.8066C20.8031 11.9459 20.8031 12.163 20.6638 12.3023L18.472 14.4913C18.3509 14.6118 18.2549 14.755 18.1893 14.9127C18.1238 15.0705 18.09 15.2396 18.09 15.4104C18.09 15.5812 18.1238 15.7503 18.1893 15.908C18.2549 16.0658 18.3509 16.209 18.472 16.3295C18.7165 16.5728 19.0474 16.7094 19.3924 16.7094C19.7373 16.7094 20.0682 16.5728 20.3128 16.3295L23.5763 13.0686C23.7108 12.9342 23.8175 12.7745 23.8902 12.5988C23.9629 12.4231 24.0002 12.2347 23.9999 12.0446C23.9997 11.8544 23.9619 11.6661 23.8888 11.4906C23.8156 11.315 23.7085 11.1556 23.5737 11.0215Z" fill="#F4F4F4"/>
</g>
<defs>
<clipPath id="clip0_98_910">
<rect width="24" height="24" fill="white"/>
</clipPath>
</defs>
</svg>
