<svg width="24" height="24" viewBox="0 0 24 24" fill="none" xmlns="http://www.w3.org/2000/svg">
<path d="M21.8068 18.2848L13.5528 0.756487C13.3458 0.318287 12.9138 0.0291868 12.4242 0.00238684C11.9219 -0.0269132 11.4719 0.215387 11.218 0.627687L2.26602 15.1271C1.98872 15.5789 1.99422 16.1362 2.28182 16.5826L6.65772 23.3612C6.91852 23.7658 7.37042 24 7.84002 24C7.97322 24 8.10702 23.9812 8.23872 23.9423L20.9406 20.1855C21.3297 20.0704 21.6478 19.7951 21.8143 19.4302C21.9808 19.0653 21.9776 18.6474 21.8068 18.2848ZM19.9587 19.0367L9.18142 22.2242C8.85222 22.3217 8.53662 22.0369 8.60582 21.7048L12.4559 3.26619C12.5279 2.92139 13.0045 2.86659 13.1549 3.18589L20.2837 18.3239C20.4181 18.6095 20.2647 18.9463 19.9587 19.0367Z" fill="#F4F4F4"/>
</svg>
