<svg width="24" height="24" viewBox="0 0 24 24" fill="none" xmlns="http://www.w3.org/2000/svg">
<g clip-path="url(#clip0_98_904)">
<path d="M8.28609 10.578L8.79809 1.92101C8.80216 1.85327 8.82864 1.78881 8.87335 1.73776C8.91807 1.68671 8.97848 1.65197 9.04509 1.63901L17.3771 0.0060098C17.4286 -0.00409551 17.4817 -0.000806838 17.5316 0.0155603C17.5814 0.0319274 17.6262 0.0608237 17.6616 0.0994764C17.697 0.138129 17.722 0.185241 17.7339 0.236292C17.7459 0.287343 17.7446 0.34062 17.7301 0.39101L16.1721 5.79401C16.1576 5.84431 16.1563 5.89747 16.1683 5.94842C16.1802 5.99936 16.205 6.0464 16.2403 6.08502C16.2757 6.12364 16.3203 6.15256 16.37 6.16902C16.4196 6.18547 16.4727 6.18891 16.5241 6.17901L18.9121 5.71901C18.9683 5.70802 19.0264 5.71302 19.0799 5.73343C19.1334 5.75384 19.1801 5.78885 19.2147 5.83448C19.2493 5.8801 19.2704 5.93452 19.2756 5.99153C19.2808 6.04855 19.2699 6.10588 19.2441 6.15701L12.4541 19.707L12.3311 19.897C12.3046 19.94 12.2676 19.9755 12.2234 20C12.1793 20.0245 12.1296 20.0373 12.0791 20.037C11.9021 20.037 11.7291 19.885 11.7741 19.668L12.8691 14.367C12.8798 14.3151 12.8769 14.2613 12.8606 14.2108C12.8443 14.1604 12.8151 14.115 12.776 14.0792C12.7369 14.0434 12.6891 14.0184 12.6374 14.0066C12.5857 13.9948 12.5319 13.9967 12.4811 14.012L11.0481 14.447C10.9974 14.4625 10.9435 14.4645 10.8917 14.4528C10.84 14.4412 10.7922 14.4163 10.7529 14.3806C10.7137 14.3449 10.6844 14.2996 10.668 14.2492C10.6515 14.1988 10.6485 14.145 10.6591 14.093L11.3491 10.718C11.3596 10.6676 11.3571 10.6154 11.3421 10.5662C11.327 10.517 11.2998 10.4724 11.2629 10.4365C11.226 10.4006 11.1806 10.3746 11.131 10.3609C11.0814 10.3472 11.0292 10.3462 10.9791 10.358L8.65909 10.894C8.61279 10.9046 8.56465 10.9044 8.51848 10.8932C8.4723 10.882 8.42937 10.8602 8.39309 10.8295C8.3568 10.7989 8.32814 10.7602 8.3094 10.7165C8.29066 10.6729 8.28233 10.6254 8.28509 10.578H8.28609ZM23.2621 2.65201L17.2841 3.74001L16.7401 5.62701L18.8171 5.22701C18.978 5.19492 19.145 5.21312 19.2952 5.27913C19.4455 5.34514 19.5718 5.45577 19.6571 5.59601C19.7295 5.71264 19.7706 5.84593 19.7765 5.98306C19.7825 6.12019 19.7531 6.25654 19.6911 6.37901L12.9001 19.93L12.8871 19.955L12.8721 19.978L12.7501 20.168C12.678 20.281 12.5787 20.374 12.4613 20.4387C12.3439 20.5033 12.2121 20.5375 12.0781 20.538C11.9567 20.5373 11.837 20.5099 11.7274 20.4577C11.6178 20.4055 11.5211 20.3298 11.4441 20.236C11.3692 20.1433 11.316 20.035 11.2883 19.9191C11.2606 19.8032 11.2592 19.6826 11.2841 19.566L12.3131 14.585L11.1931 14.925C11.0399 14.9712 10.8765 14.9709 10.7234 14.9243C10.5704 14.8776 10.4345 14.7867 10.3331 14.663C10.2575 14.5707 10.2034 14.4626 10.1749 14.3467C10.1463 14.2307 10.144 14.1099 10.1681 13.993L10.7981 10.913L8.77109 11.381C8.63387 11.4124 8.49083 11.4075 8.35612 11.3666C8.22141 11.3257 8.09972 11.2504 8.00309 11.148C7.92819 11.0679 7.87033 10.9734 7.83303 10.8703C7.79573 10.7671 7.77976 10.6575 7.78609 10.548L8.17509 3.97801L0.735092 2.64801C0.62046 2.62732 0.502306 2.63978 0.394509 2.68392C0.286712 2.72805 0.193749 2.80204 0.126542 2.89718C0.0593357 2.99232 0.0206759 3.10466 0.0151048 3.22101C0.00953374 3.33736 0.0372827 3.45288 0.0950919 3.55401L11.5801 23.691C11.6337 23.7853 11.7115 23.8636 11.8053 23.9179C11.8992 23.9722 12.0058 24.0007 12.1143 24.0003C12.2227 23.9999 12.3291 23.9706 12.4226 23.9156C12.516 23.8605 12.5931 23.7817 12.6461 23.687L23.9061 3.55201C23.9625 3.4507 23.989 3.33544 23.9825 3.21966C23.976 3.10388 23.9367 2.99233 23.8692 2.89802C23.8017 2.80371 23.7088 2.73052 23.6013 2.68696C23.4938 2.64341 23.3762 2.63128 23.2621 2.65201Z" fill="#F4F4F4"/>
</g>
<defs>
<clipPath id="clip0_98_904">
<rect width="24" height="24" fill="white"/>
</clipPath>
</defs>
</svg>
