<svg width="539" height="505" viewBox="0 0 539 505" fill="none" xmlns="http://www.w3.org/2000/svg">
<path fill-rule="evenodd" clip-rule="evenodd" d="M266.134 17.1148C296.118 19.79 326.444 11.9075 355.651 19.1914C386.053 26.7731 414.104 41.6625 439.287 60.2961C465.534 79.7178 489.38 102.68 506.251 130.626C523.568 159.313 536.721 191.429 538.638 224.877C540.543 258.096 535.144 293.475 517.193 321.498C499.423 349.241 463.545 358.605 438.94 380.524C418.558 398.68 403.596 421.302 383.92 440.219C361.239 462.025 343.165 491.998 313.149 501.459C283.424 510.828 251.105 499.526 220.966 491.582C191.814 483.897 163.904 472.307 138.868 455.52C114.198 438.977 95.3759 416.04 75.4568 394.011C54.3711 370.692 29.4978 349.813 17.1481 320.909C4.45685 291.205 -5.66317 256.746 3.58711 225.799C13.0463 194.153 50.137 179.332 67.8087 151.422C83.6543 126.396 85.277 94.6607 102.071 70.26C120.364 43.6799 139.494 12.5928 170.203 2.64543C201.23 -7.40539 233.646 14.2162 266.134 17.1148Z" fill="url(#paint0_linear_36_969)"/>
<defs>
<linearGradient id="paint0_linear_36_969" x1="269.5" y1="0" x2="269.5" y2="505" gradientUnits="userSpaceOnUse">
<stop stop-color="#FF232A"/>
<stop offset="1" stop-color="#991519"/>
</linearGradient>
</defs>
</svg>
