<svg width="195" height="48" viewBox="0 0 195 48" fill="none" xmlns="http://www.w3.org/2000/svg">
<path d="M141.165 27.3164C143.949 27.3164 145.143 27.3189 145.654 27.3643C145.958 27.3133 146.475 27.3161 147.193 27.3701C147.244 27.3541 147.319 27.3539 147.424 27.3633C147.6 27.3864 147.811 27.4094 147.894 27.4209C147.911 27.421 147.928 27.4266 147.944 27.4365C147.966 27.4388 147.989 27.441 148.011 27.4434C148.082 27.4508 148.152 27.4603 148.223 27.4688C148.3 27.418 148.448 27.4328 148.715 27.502C148.773 27.518 148.822 27.5375 148.86 27.5586C150.358 27.8064 151.731 28.2826 152.93 28.9512C152.996 28.946 153.115 29.009 153.329 29.1309C153.449 29.2025 153.536 29.264 153.589 29.3145C153.635 29.2811 153.67 29.3045 153.67 29.373C153.67 29.3853 153.675 29.3962 153.679 29.4072C153.728 29.44 153.776 29.4743 153.824 29.5078C153.831 29.5085 153.838 29.5117 153.846 29.5117C153.94 29.5117 154.022 29.5584 154.022 29.6162C154.023 29.6297 154.028 29.6441 154.037 29.6592C154.086 29.6952 154.135 29.7318 154.184 29.7686C154.2 29.7756 154.216 29.7839 154.233 29.7891C154.337 29.8231 154.496 29.9579 154.58 30.083C154.945 30.3895 155.284 30.7198 155.596 31.0703C155.622 31.0552 155.662 31.0781 155.725 31.1299C155.879 31.2619 156.528 32.2412 156.688 32.5771C156.801 32.7731 156.906 32.9739 157.005 33.1787C157.081 33.2984 157.174 33.4732 157.286 33.7061C157.295 33.7238 157.282 33.737 157.255 33.75C157.325 33.9253 157.392 34.1024 157.451 34.2832L157.63 34.8193C157.69 34.925 157.75 35.0051 157.806 35.0576H167.21C167.217 35.0541 167.224 35.0493 167.231 35.0459L167.273 35.0264L168.054 34.249C168.227 34.0785 168.396 33.9191 168.539 33.7871H168.523L169.345 33.0244C169.68 32.7148 169.88 32.5364 170.001 32.4541L170.543 31.9385L171.259 31.2451H179.239C179.307 31.1814 179.386 31.0869 179.471 30.9756L179.549 30.8057C179.649 30.5897 179.785 30.3784 179.947 30.1787C179.969 30.1385 180.001 30.0867 180.042 30.0205C180.383 29.5121 181.603 28.8184 182.155 28.8184C182.183 28.8184 182.207 28.8282 182.229 28.8438C182.368 28.8253 182.447 28.8234 182.493 28.8486C182.572 28.8443 182.653 28.8444 182.735 28.8486C182.801 28.8127 182.934 28.8215 183.2 28.8535C183.586 28.9072 183.966 29.0441 184.316 29.2461C184.431 29.277 184.526 29.3356 184.546 29.3887C184.583 29.414 184.618 29.442 184.654 29.4688C184.697 29.4879 184.759 29.5252 184.844 29.5811C185.008 29.685 185.255 29.9283 185.384 30.1016L185.619 30.4365H185.558C185.567 30.4512 185.577 30.4656 185.586 30.4805L185.643 30.5518H185.627C185.674 30.6318 185.717 30.714 185.757 30.7979C185.809 30.8669 185.866 30.9696 185.924 31.1064C186.006 31.2988 186.038 31.3893 186.009 31.4336C186.081 31.6849 186.087 31.8617 186.026 31.9609C186.036 32.0715 186.04 32.181 186.038 32.2842C186.131 32.4757 186.032 32.8998 185.736 33.498C185.231 34.5494 184.316 35.2315 183.259 35.3701C182.992 35.4088 182.873 35.4095 182.823 35.3516C182.659 35.3631 182.497 35.3655 182.346 35.3594C182.187 35.4539 181.816 35.3655 181.204 35.0811C180.488 34.746 179.783 34.0876 179.442 33.4521C179.384 33.3293 179.295 33.2228 179.216 33.1582C178.91 33.103 178.221 33.0894 176.602 33.082C175.709 33.0753 174.777 33.0643 174.058 33.0576C173.914 33.0892 173.644 33.0938 173.138 33.0938H172.098C172.066 33.1031 172.037 33.115 172.009 33.1279L170.977 34.0967C170.99 34.1652 170.86 34.285 170.578 34.4805L170.537 34.5078C170.138 34.8844 169.845 35.1558 169.631 35.3408L169.686 35.3467L168.781 36.1318C168.668 36.2277 168.562 36.3146 168.463 36.3926C168.328 36.5319 168.213 36.6341 168.021 36.708C167.698 36.914 167.508 36.956 167.438 36.8301C166.726 36.9084 165.426 36.9062 162.77 36.9062C157.979 36.9062 157.896 36.9066 157.896 37.1377C157.896 37.1875 157.888 37.2278 157.872 37.2607C157.873 37.2695 157.872 37.279 157.873 37.2881C157.895 37.5209 157.894 37.629 157.837 37.6777L157.829 37.9463H157.933L157.861 38.6357C157.925 38.789 157.892 39.1032 157.769 39.6016C157.779 39.6873 157.759 39.8155 157.709 40.0029C157.685 40.0883 157.652 40.1504 157.618 40.1934C157.489 40.7394 157.546 40.8349 157.838 40.835C157.941 40.835 158.013 40.8494 158.061 40.8838C158.079 40.8858 158.097 40.8878 158.116 40.8896C158.301 40.8863 158.528 40.8876 158.771 40.8926C159.582 40.8731 161.05 40.8755 163.709 40.8809C166.416 40.8865 167.893 40.892 168.695 40.9189C168.9 40.8948 169.216 40.8876 169.697 40.8926C169.831 40.8926 169.946 40.8882 170.047 40.8857C170.073 40.8558 170.108 40.8416 170.144 40.8467C170.519 40.8928 170.672 40.8 170.848 40.4307C170.873 40.3797 170.9 40.3274 170.931 40.2754C170.93 40.2731 170.93 40.2709 170.93 40.2686C170.93 40.1992 171.059 40.0024 171.224 39.8291L171.506 39.5059L171.507 39.5449C171.635 39.4141 171.773 39.2901 171.914 39.1777C172.029 39.0724 172.127 39.0004 172.209 38.9648C172.344 38.8769 172.478 38.7998 172.609 38.7432C174.946 37.7383 177.564 39.5523 177.364 42.0361C177.329 42.4289 177.189 42.9606 177.06 43.2148C176.944 43.4387 176.734 43.701 176.49 43.9521C176.48 43.9801 176.462 44.0157 176.437 44.0586C176.354 44.1741 176.202 44.3245 176.085 44.4053C176.001 44.4537 175.949 44.4752 175.916 44.4639C175.705 44.6265 175.498 44.7595 175.321 44.832C174.629 45.1209 173.536 45.144 172.844 44.9014C172.624 44.8231 172.409 44.7205 172.205 44.6006C172.2 44.6303 172.194 44.6473 172.187 44.6475C172.175 44.6475 171.975 44.4972 171.752 44.3008L171.341 43.9658L171.396 43.9639C171.188 43.744 171.018 43.5053 170.906 43.2607C170.773 42.9781 170.613 42.7487 170.527 42.6953L170.496 42.6836H157.017L156.973 42.6973C156.886 42.7425 156.734 42.8955 156.572 43.1025C156.541 43.1797 156.464 43.2838 156.341 43.4229C156.195 43.6299 156.039 43.8314 155.873 44.0273L155.643 44.3242C155.55 44.4415 155.347 44.6361 155.101 44.8574C155.078 44.8788 155.054 44.8989 155.031 44.918C154.409 45.471 153.559 46.1478 153.436 46.1494C153.418 46.1494 153.403 46.1416 153.389 46.1279C153.244 46.2167 153.097 46.3036 152.947 46.3867C152.858 46.4491 152.768 46.5047 152.707 46.5312C152.684 46.5392 152.664 46.544 152.646 46.5479C152.523 46.6113 152.399 46.6727 152.273 46.7324C152.205 46.7905 152.093 46.8586 151.933 46.9238C151.777 46.9881 151.685 47.0197 151.632 47.0166C151.325 47.142 151.012 47.256 150.692 47.3584C150.65 47.3994 150.579 47.4386 150.477 47.4668C150.316 47.5084 150.198 47.5293 150.112 47.5293C149.315 47.745 148.488 47.8901 147.646 47.9521C146.933 47.9975 146.666 48.012 146.566 47.9561C144.869 48.025 138.299 48.004 136.71 47.9268C136.671 47.9727 136.61 47.998 136.527 47.998C136.375 47.998 136.292 47.9168 136.292 47.7666C136.292 47.6959 136.31 47.6403 136.346 47.6016C136.339 47.3484 136.336 46.9383 136.332 46.3984C136.303 46.3365 136.292 46.2398 136.292 46.0918C136.292 45.9491 136.303 45.8542 136.329 45.792C136.328 45.6069 136.326 45.4114 136.325 45.2061C136.3 45.12 136.292 44.9818 136.292 44.7627C136.292 44.548 136.301 44.4115 136.324 44.3252C136.323 42.6755 136.328 40.5727 136.337 38.2754C136.298 38.0006 136.292 37.4235 136.292 36.2129C136.292 34.848 136.297 34.2884 136.352 34.0596L136.361 31.2549C136.298 31.0806 136.292 30.6218 136.292 29.4199C136.292 28.671 136.311 28.006 136.333 27.6562C136.295 27.6275 136.292 27.5917 136.292 27.5479C136.292 27.4966 136.297 27.4578 136.355 27.4268C136.358 27.4115 136.36 27.4013 136.363 27.3975C136.391 27.3711 136.459 27.3647 136.531 27.3789C136.946 27.317 138.077 27.3164 141.165 27.3164ZM48.3828 27.3164C49.5686 27.3164 51.3064 27.5942 52.4102 27.9639C52.7422 28.0716 53.104 28.2076 53.4502 28.3486C53.4691 28.3563 53.4875 28.3645 53.5059 28.3721C54.1831 28.6505 54.7903 28.9455 54.9795 29.0938C55.0665 29.1473 55.1662 29.2115 55.2725 29.2832C55.4508 29.3193 56.6575 30.2825 57.0723 30.7246C57.5418 31.2097 58.4448 32.3996 58.4453 32.5273C58.4453 32.5348 58.4426 32.5418 58.4385 32.5488C58.6059 32.8314 58.751 33.1102 58.8564 33.3594C58.9521 33.5915 58.992 33.6956 58.9688 33.7441C58.9999 33.8241 59.0298 33.9058 59.0596 33.9883C59.0882 34.0222 59.12 34.0659 59.1504 34.1221C59.2484 34.309 59.2795 34.4606 59.2529 34.5635C59.3641 34.7843 59.4719 35.1825 59.5605 35.7275C59.5951 35.9375 59.6098 36.0584 59.5908 36.127C59.6167 36.3565 59.6188 36.4646 59.5762 36.5156C59.5766 36.5228 59.5777 36.5299 59.5781 36.5371C59.6771 36.6769 59.7373 36.9711 59.7373 37.3916C59.7373 37.6839 59.7062 37.8911 59.6455 38.0195C59.6401 38.0771 59.6306 38.1231 59.6191 38.1602C59.6188 38.4791 59.6084 38.7654 59.5918 38.9814C59.6364 39.1315 59.5711 39.4766 59.3965 40.2568C59.3302 40.5505 59.2483 40.8374 59.1553 41.1182C59.154 41.1334 59.1504 41.1467 59.1504 41.1582C59.1504 41.1777 59.14 41.1959 59.125 41.2139C59.1152 41.2431 59.1051 41.2721 59.0947 41.3008C59.0903 41.3132 59.0855 41.3255 59.0811 41.3379C59.1121 41.3816 59.08 41.4724 58.9971 41.667C58.9354 41.8138 58.8721 41.9196 58.8164 41.9883C57.9914 43.8146 56.5719 45.3106 54.6963 46.3604C54.6235 46.4217 54.5084 46.4995 54.3477 46.5889C54.0188 46.7709 53.8707 46.8447 53.8037 46.8096C53.5001 46.9469 53.1872 47.0747 52.8643 47.1904C52.8319 47.2193 52.7882 47.2524 52.7275 47.2822C52.4455 47.4264 50.7894 47.8126 50.0029 47.915C49.9915 47.9187 49.9802 47.9253 49.9678 47.9287C49.712 47.9949 49.5658 48.0093 49.4863 47.9658C49.211 47.9975 49.0717 47.9929 49.002 47.9482C48.1578 47.9747 46.0306 47.998 43.6279 47.998H38.1328V47.96C38.1249 47.9514 38.1172 47.9416 38.1104 47.9287C38.106 47.9245 38.101 47.9214 38.0977 47.917C38.0946 47.9094 38.0941 47.898 38.0918 47.8838C38.0215 47.6711 38.0156 47.0649 38.0156 45.3408C38.0156 43.8519 38.0031 43.1756 37.9541 42.8848C37.8831 42.8264 37.756 42.7753 37.6045 42.7529C37.572 42.7466 37.5414 42.7385 37.5127 42.7314C36.7845 42.6863 35.1132 42.6836 31.2168 42.6836H24.6885L24.6504 42.6914C24.5546 42.7274 24.4167 42.8824 24.3242 43.0645C24.237 43.2292 24.1378 43.3898 24.0332 43.543L24.1016 43.5498L23.8438 43.8027C23.6452 44.0543 23.4318 44.2694 23.2207 44.416L22.8682 44.6592V44.5947C22.7702 44.65 22.6692 44.6993 22.5664 44.7451C22.2627 45.1223 20.7572 45.2157 19.874 44.8789C18.1717 44.2318 17.2096 42.1398 17.9141 40.5801C18.2312 39.8754 18.9941 39.0671 19.6162 38.7783C21.26 38.0158 23.0331 38.5475 24.0664 40.0957L24.5596 40.835H29.6436C32.6381 40.835 33.8691 40.8371 34.375 40.8867C34.5861 40.8842 34.7926 40.8808 34.9932 40.8779C35.1465 40.8401 35.4561 40.835 36.0781 40.835C36.4372 40.835 36.6921 40.8365 36.873 40.8447C37.5352 40.8299 37.9494 40.8171 37.9678 40.8115C37.9893 40.7798 38.0279 38.3137 38.0166 37.3408C38.0165 37.331 38.0156 37.3208 38.0156 37.3105C38.0156 37.3022 38.0165 37.2941 38.0166 37.2861C38.0156 37.2202 38.0172 37.1624 38.0156 37.1143C38.0156 36.9179 37.7798 36.9062 34.7861 36.9062C33.0095 36.9062 32.2102 36.9029 31.8506 36.8613L31.3516 36.8623C31.2894 36.8946 31.1885 36.9062 31.0293 36.9062C30.872 36.9062 30.7714 36.8946 30.709 36.8633L30.2881 36.8643C30.2255 36.8941 30.1266 36.9062 29.9727 36.9062C29.821 36.9062 29.722 36.895 29.6592 36.8662L28.502 36.8691C28.4034 36.9006 28.227 36.9062 27.917 36.9062C27.7383 36.9062 27.6 36.9009 27.4854 36.8877C27.3129 36.9926 26.8538 36.6759 26.0625 35.9238L25.041 34.9541L25.0889 34.9521L25.041 34.9072L24.7109 34.6045C24.5988 34.5507 24.3783 34.3467 23.9258 33.9258C23.5558 33.5795 23.1919 33.2811 23.0117 33.1562C22.68 33.1093 22.0235 33.0985 20.584 33.0957C20.4696 33.1396 20.3107 33.1535 20.1445 33.1172C20.1147 33.1111 20.0881 33.1029 20.0645 33.0947C19.9318 33.0946 19.7935 33.0938 19.6494 33.0938C19.5347 33.1392 19.3736 33.154 19.2051 33.1172C19.1739 33.1109 19.1465 33.1024 19.1221 33.0938H17.7725C17.6577 33.1397 17.4954 33.1542 17.3262 33.1172C17.295 33.1109 17.2676 33.1024 17.2432 33.0938H16.0117L15.9697 33.1064C15.8592 33.1644 15.6593 33.4132 15.4951 33.7061C14.8963 34.7575 13.9682 35.3464 12.7588 35.4619C12.4066 35.485 11.8902 35.4509 11.5967 35.3701C10.0235 34.9311 8.96697 33.5907 8.99023 32.0889C9.02546 29.6396 11.655 28.0216 13.8623 29.0957C14.5316 29.4192 15.1426 30.0433 15.6123 30.8867L15.8115 31.2451H17.0566C17.6699 31.2451 17.9792 31.2498 18.1348 31.2861L19.7217 31.2686L23.6553 31.2217L23.8467 31.3877C24.001 31.4831 24.1892 31.6272 24.4062 31.8223L25.041 32.3887L24.9961 32.3896C25.151 32.5266 25.2949 32.6568 25.415 32.7686C25.5771 32.8667 25.9032 33.1747 26.5791 33.8213C27.1492 34.3639 27.6751 34.8252 27.9014 34.9912C28.4029 35.0516 29.6324 35.0576 32.8604 35.0576C35.2463 35.0576 37.2735 35.0315 37.8506 34.9961C37.9719 34.9379 38.0156 34.8237 38.0156 34.6074C38.0156 34.5358 38.0185 34.4771 38.0264 34.4297C38.0294 34.0844 38.0329 33.6081 38.0391 33.0938C38.0406 32.8304 38.045 32.5981 38.0479 32.3936C38.0211 32.0523 38.0273 31.382 38.0391 30.0664L38.0742 27.374L41.9248 27.3398C44.1247 27.3264 45.0646 27.323 45.4658 27.3662C45.5475 27.3651 45.6315 27.3645 45.7178 27.3633C46.5591 27.3534 47.1916 27.3488 47.666 27.3525C47.7845 27.3218 47.9991 27.3164 48.3828 27.3164ZM77.5254 27.3164C77.6976 27.3164 77.8018 27.3305 77.8623 27.3691L79.5215 27.374L79.5566 28.7383C79.5794 29.5752 79.5818 29.8943 79.5176 30.0156C79.5111 30.9946 79.4842 31.2418 79.3818 31.3125C79.315 31.3809 79.2118 31.3604 79.0518 31.3604C78.8381 31.3603 78.7301 31.3397 78.6797 31.2783C78.4827 31.2909 78.238 31.3006 77.9365 31.3066V31.3838L73.1582 31.3604C71.7417 31.3542 70.4463 31.3474 69.5371 31.3447C69.4086 31.3556 69.2256 31.3604 68.9658 31.3604C68.7707 31.3604 68.6171 31.3624 68.4961 31.3691C68.4743 31.377 68.4518 31.3889 68.4258 31.3955C68.3541 31.4148 68.2902 31.4557 68.2471 31.5059C68.2004 31.7017 68.1914 32.1357 68.1914 33.0361C68.1914 33.7081 68.1871 34.111 68.168 34.3525C68.1686 34.4469 68.1691 34.5471 68.168 34.6533C68.168 34.8378 68.1704 34.9833 68.1777 35.0977C68.1861 35.1347 68.1914 35.1791 68.1914 35.2314C68.2164 35.4198 68.2645 35.4833 68.3555 35.4971C68.3841 35.5032 68.4093 35.5112 68.4316 35.5195H78.1719V39.4482H73.2051C71.1928 39.4482 69.4343 39.4608 68.6357 39.4766C68.4739 39.4905 68.338 39.5064 68.2393 39.5225C68.2083 39.5716 68.1914 39.6446 68.1914 39.7373C68.1914 39.8178 68.1812 39.8788 68.1602 39.9238C68.1589 40.0035 68.1569 40.0928 68.1562 40.1904V40.7539C68.1697 41.1052 68.1739 41.5897 68.1719 42.0566L68.1982 43.7617C68.2074 43.7852 68.2191 43.8101 68.2266 43.8389C68.2618 43.9658 68.3671 44.0692 68.4727 44.0693H79.9326V47.998H63.1426V47.9395C63.1227 47.9256 63.1059 47.9111 63.0957 47.8945C63.0533 47.829 63.0382 43.329 63.0439 38.9434C63.0304 38.8837 63.0244 38.8037 63.0244 38.6973C63.0244 38.5867 63.0312 38.5047 63.0459 38.4443C63.0464 38.1516 63.0462 37.8601 63.0469 37.5713C63.0307 37.5103 63.0244 37.4257 63.0244 37.3105C63.0244 37.192 63.0316 37.1062 63.0488 37.0449C63.0493 36.8756 63.0493 36.7076 63.0498 36.541C63.0316 36.4794 63.0244 36.3919 63.0244 36.2705C63.0244 36.1455 63.0323 36.0569 63.0518 35.9951C63.055 35.0722 63.0584 34.2081 63.0635 33.4551C63.0358 33.393 63.0244 33.2972 63.0244 33.1514C63.0244 32.9933 63.036 32.8931 63.0693 32.832C63.0715 32.5674 63.0738 32.3216 63.0762 32.0977C63.0304 31.8435 63.034 31.2444 63.0479 29.835L63.084 27.374L68.168 27.3398C71.3307 27.3253 72.5215 27.3199 72.9697 27.376C73.1171 27.3744 73.2734 27.3734 73.4375 27.3721C73.5156 27.3291 73.6645 27.3164 73.9443 27.3164C74.2113 27.3164 74.3595 27.328 74.4404 27.3662C74.8245 27.3646 75.2308 27.3633 75.6475 27.3633L77.1914 27.3672C77.2523 27.3298 77.3557 27.3164 77.5254 27.3164ZM86.0312 27.3721L86.0967 27.374L86.251 27.625C86.4162 27.8125 86.4952 27.9359 86.4912 28.0137L87.2363 29.2227C87.5829 29.789 87.8954 30.3096 88.1055 30.6689C88.1327 30.6659 88.1441 30.6798 88.1318 30.7158C88.2054 30.8423 88.2653 30.9461 88.3066 31.0225C88.3907 31.0959 88.4074 31.126 88.3623 31.1172C88.3978 31.175 88.4327 31.2328 88.4678 31.29C88.4754 31.2943 88.484 31.2977 88.4922 31.3027C88.5518 31.3321 88.5825 31.402 88.5703 31.458C88.5986 31.504 88.6263 31.5501 88.6543 31.5957C88.6866 31.6028 88.708 31.6242 88.7061 31.6553C88.7058 31.6605 88.7019 31.6652 88.7002 31.6709C88.7475 31.7479 88.7952 31.8238 88.8418 31.8994C88.8491 31.9055 88.8515 31.9079 88.8496 31.9121C88.9204 32.0271 88.9906 32.1402 89.0596 32.252C89.1103 32.3043 89.1726 32.3877 89.2441 32.5039C89.3245 32.6405 89.3777 32.7391 89.4053 32.8086C89.5206 32.9947 89.6319 33.1756 89.7402 33.3496C89.777 33.3373 89.7818 33.3479 89.7646 33.3896C89.8811 33.5766 89.9924 33.7565 90.0996 33.9277C90.1029 33.9312 90.1043 33.9354 90.1064 33.9395C90.1652 34.0332 90.2245 34.1232 90.2803 34.2119C90.3204 34.241 90.3439 34.2792 90.3447 34.3145C90.395 34.3943 90.4446 34.4716 90.4922 34.5469C90.5721 34.5892 90.6125 34.6367 90.582 34.6768C90.5804 34.678 90.5786 34.6792 90.5771 34.6807C91.0773 35.4698 91.4052 35.9735 91.4863 36.0625C91.592 36.178 91.9209 35.7276 92.9072 34.1562C93.0676 33.8978 93.2628 33.5886 93.4775 33.2451C93.4793 33.2407 93.4814 33.2371 93.4844 33.2334C93.8006 32.7277 94.1615 32.1504 94.5312 31.5615C94.5298 31.5602 94.5289 31.5578 94.5273 31.5566C94.4928 31.5111 94.5154 31.4773 94.584 31.4766C94.6316 31.4007 94.6798 31.325 94.7275 31.249C94.7275 31.2477 94.7275 31.2464 94.7275 31.2451C94.7275 31.2076 94.7525 31.1711 94.7891 31.1494C94.8294 31.0852 94.8699 31.0211 94.9102 30.957C94.9156 30.9406 94.9251 30.9252 94.9395 30.9102C94.9994 30.8148 95.0587 30.7196 95.1182 30.625C95.1058 30.5926 95.1241 30.565 95.1602 30.5557C95.9953 29.2272 96.763 28.0118 97.0166 27.6055C97.064 27.5316 97.1102 27.4815 97.3301 27.4473C97.3238 27.4429 97.3177 27.4373 97.3105 27.4326C97.1931 27.3633 97.956 27.3164 99.5762 27.3164C100.998 27.3164 101.589 27.322 101.834 27.374H106.856L108.605 31.3604C111.247 37.3797 112.069 39.2517 112.598 40.5342C112.868 41.181 113.114 41.7357 113.149 41.7822C113.196 41.8284 113.443 41.366 113.713 40.7422C113.776 40.5993 113.838 40.4593 113.898 40.3213C113.876 40.2959 113.884 40.2719 113.925 40.2617C114.963 37.8972 115.734 36.1634 117.33 32.6318C118.316 30.4366 119.232 28.3909 119.373 28.0674C119.514 27.7561 119.689 27.4561 119.771 27.4092C119.954 27.2858 124.496 27.3146 124.837 27.4326H124.892L124.86 27.5C124.846 27.6527 124.673 28.0153 124.52 28.252C124.516 28.2599 124.511 28.2675 124.508 28.2754C124.526 28.308 124.511 28.3358 124.474 28.3486C124.389 28.5306 124.309 28.7087 124.229 28.8818C124.182 29.06 124.016 29.4156 123.682 30.124C123.577 30.3493 123.484 30.5307 123.404 30.6689C123.382 30.7179 123.358 30.766 123.336 30.8145C123.338 30.8195 123.339 30.8252 123.342 30.8291C123.372 30.8593 123.358 30.8874 123.299 30.8945C123.17 31.1733 123.045 31.4439 122.923 31.71C122.868 31.8786 122.741 32.1691 122.52 32.666C122.434 32.8528 122.354 32.9999 122.285 33.1064C122.282 33.1128 122.278 33.1187 122.275 33.125C122.296 33.1592 122.281 33.1893 122.241 33.2021C122.214 33.2626 122.186 33.3231 122.158 33.3838C122.158 33.4028 122.151 33.4151 122.139 33.4248C122.026 33.6718 121.912 33.9208 121.797 34.1748C121.747 34.2987 121.673 34.4678 121.568 34.6992C121.499 34.8554 121.433 34.9906 121.375 35.1064C121.33 35.205 121.285 35.3044 121.239 35.4053C121.239 35.4181 121.238 35.4298 121.239 35.4395C121.247 35.4705 121.228 35.4943 121.193 35.5078C121.092 35.7328 120.988 35.9642 120.88 36.2031C120.834 36.3305 120.757 36.5143 120.641 36.7793C120.55 36.9819 120.466 37.1494 120.393 37.2842C120.357 37.3625 120.321 37.4414 120.285 37.5215C120.287 37.5246 120.287 37.5279 120.289 37.5303C120.33 37.561 120.307 37.5902 120.252 37.5967C120.175 37.767 120.097 37.9413 120.017 38.1201C119.999 38.1721 119.973 38.2397 119.937 38.3271C119.847 38.5137 119.641 38.9819 119.47 39.3848C119.492 39.4106 119.483 39.4327 119.445 39.4424C119.445 39.4443 119.444 39.4464 119.443 39.4482C119.267 39.864 119.032 40.4068 118.915 40.6611C118.852 40.7984 118.756 41.0108 118.653 41.2344C118.666 41.2618 118.658 41.2816 118.627 41.291C118.548 41.4639 118.467 41.6407 118.398 41.7939C118.322 41.9667 118.249 42.1048 118.186 42.209C118.168 42.2785 118.135 42.3528 118.084 42.4287C118.021 42.569 117.958 42.7119 117.894 42.8564C117.832 42.9967 117.768 43.1359 117.707 43.2744C117.591 43.5677 117.391 44.016 117.083 44.7051C116.602 45.7911 116.155 46.7853 116.097 46.9355C116.064 47.0118 116.027 47.0678 115.994 47.1084C115.918 47.2776 115.865 47.3968 115.839 47.4551L115.592 47.998H110.578L110.56 47.9688C110.498 47.9398 110.444 47.8907 110.414 47.8135C110.386 47.7433 110.366 47.6906 110.358 47.6514L110.344 47.6279C110.215 47.42 110.108 47.2122 110.108 47.166C110.108 47.1533 110.055 47.0243 109.963 46.8066C109.91 46.6958 109.853 46.5692 109.792 46.4268C109.428 45.6065 109.158 44.994 107.796 41.9326C107.573 41.4243 107.055 40.2803 106.645 39.3906C106.245 38.501 105.612 37.0796 105.236 36.2246C104.872 35.3812 104.144 33.7403 103.627 32.585C103.234 31.7153 102.79 30.7175 102.5 30.0664L102.499 30.0645C102.408 29.8601 102.331 29.6908 102.277 29.5693C102.054 29.0611 101.831 28.5989 101.772 28.541C101.714 28.4833 101.479 28.7377 101.221 29.1533C100.974 29.5462 100.28 30.6555 99.6699 31.626C99.0712 32.5848 98.1914 33.983 97.7217 34.7109C97.2521 35.4388 96.23 37.0677 95.4551 38.3154L94.0225 40.5918L93.999 44.2666C93.9762 46.456 93.9624 47.3499 93.9053 47.7178V47.998H88.8564V44.3242C88.8564 41.4037 88.8213 40.6049 88.6924 40.4307C88.6677 40.3951 88.6248 40.3235 88.5615 40.2256C88.5449 40.2091 88.5304 40.188 88.5205 40.1621C88.4733 40.0887 88.4181 40.0031 88.3564 39.9062C88.3169 39.8987 88.295 39.8705 88.3076 39.8301C88.2072 39.6721 88.089 39.4902 87.9609 39.2871C87.9547 39.2791 87.9494 39.2704 87.9443 39.2607C87.8887 39.1725 87.8313 39.0804 87.7715 38.9854C87.7047 38.9838 87.6833 38.9505 87.7178 38.9053C87.7187 38.9046 87.7189 38.9031 87.7197 38.9023C87.6166 38.7383 87.5081 38.5653 87.3955 38.3857C87.3707 38.3654 87.3497 38.3332 87.3389 38.2939C87.2905 38.2168 87.241 38.1388 87.1914 38.0596C87.1409 38.0551 87.1121 38.0172 87.1387 37.9756C86.5542 37.0418 85.8932 35.9825 85.3184 35.0547C85.2686 35.0491 85.2498 35.0184 85.2656 34.9688C85.2303 34.9117 85.1947 34.8557 85.1602 34.7998C85.1346 34.7796 85.1154 34.7498 85.1064 34.7119C85.0304 34.589 84.9574 34.4685 84.8857 34.3525C84.7838 34.2181 84.6314 33.9906 84.4766 33.7295C84.4605 33.7019 84.4453 33.6737 84.4297 33.6465C84.4222 33.6394 84.4137 33.6253 84.4053 33.6016C84.3268 33.4645 84.2542 33.3358 84.1953 33.2275C84.1619 33.1726 84.1297 33.1214 84.1006 33.0732C84.0427 33.0894 84.0363 33.082 84.083 33.0449C84.069 33.0217 84.0549 32.999 84.042 32.9775C83.9743 32.8626 83.8955 32.7327 83.8105 32.5898C83.6964 32.4325 83.5278 32.1728 83.3613 31.8809C83.3234 31.8144 83.2875 31.7479 83.252 31.6846C83.2403 31.6856 83.2376 31.6822 83.2422 31.667C83.1565 31.5143 83.0781 31.3748 83.0166 31.2598C82.966 31.1754 82.9144 31.0909 82.8633 31.0059C82.8205 30.9541 82.771 30.8836 82.7158 30.7939C82.637 30.66 82.5837 30.5633 82.5557 30.4941C82.5166 30.4292 82.4771 30.3649 82.4385 30.3008C82.4182 30.3039 82.4122 30.294 82.4209 30.2715C82.4134 30.2591 82.4059 30.2467 82.3984 30.2344C82.2866 30.0734 82.1495 29.8645 82.0107 29.6387C81.9521 29.541 81.8977 29.4447 81.8447 29.3545C81.7135 29.1617 81.5405 28.8841 81.3652 28.5762C81.1932 28.2843 81.039 28.0071 80.9287 27.7969L80.7432 27.4902L80.7773 27.4893C80.7626 27.4544 80.755 27.4309 80.7549 27.4209C80.7549 27.4101 80.7903 27.4004 80.8574 27.3906C80.8887 27.3742 80.934 27.3692 80.9961 27.376C81.3803 27.3417 82.1937 27.3164 83.2207 27.3164C84.527 27.3164 85.1416 27.323 85.4307 27.3623C85.4916 27.3615 85.557 27.362 85.627 27.3633L85.9287 27.3701L85.9326 27.2588L86.0312 27.3721ZM129.13 27.374C130.592 27.374 131.215 27.3796 131.483 27.4326H131.713V37.7148C131.713 44.5432 131.712 46.8377 131.642 47.6084C131.651 47.6919 131.647 47.7567 131.616 47.8086C131.583 47.9923 131.539 47.998 131.479 47.998C131.441 47.998 131.411 47.995 131.385 47.9541C131.37 47.9525 131.357 47.949 131.346 47.9434C131.073 47.9921 130.577 47.9903 129.705 47.9746C129.593 47.972 129.48 47.9684 129.366 47.9658C129.168 47.9935 128.803 47.998 128.132 47.998C127.466 47.998 127.102 47.9939 126.902 47.9668C126.887 47.9881 126.872 47.9979 126.853 47.998C126.759 47.998 126.664 47.9287 126.629 47.8594C126.582 47.7305 126.594 42.9964 126.652 42.6025C126.652 42.5894 126.656 42.5767 126.66 42.5645V42.207C126.656 42.1929 126.652 42.1781 126.652 42.1631C126.621 41.8311 126.625 41.6076 126.662 41.4707L126.663 40.915C126.655 40.8999 126.646 40.8851 126.641 40.8691C126.617 40.7502 126.605 37.6665 126.605 34.0176V27.374H129.13ZM142.439 31.459C142.352 31.472 142.226 31.4766 142.046 31.4766H141.789C141.761 31.4882 141.73 31.5015 141.693 31.5107C141.564 31.5454 141.459 31.6491 141.459 31.7529V36.0977C141.459 38.7908 141.456 39.9148 141.407 40.3838C141.41 40.603 141.414 40.8149 141.417 41.0186C141.453 41.206 141.459 41.5825 141.459 42.3369V42.918C141.476 43.4732 141.49 43.7999 141.506 43.8154C141.515 43.8245 141.573 43.8318 141.672 43.8389H142.339C142.696 43.8389 142.91 43.8445 143.037 43.8682C143.453 43.8695 143.929 43.8687 144.43 43.8613C145.561 43.8475 146.382 43.8207 147.023 43.7695C148.711 43.5234 149.879 43.0297 150.84 42.1523C151.15 41.8734 151.412 41.5786 151.637 41.2549C151.692 41.1515 151.769 41.0304 151.843 40.9297C152.191 40.3296 152.433 39.6238 152.613 38.7314C152.618 38.7083 152.625 38.6861 152.63 38.6641C152.619 38.6487 152.613 38.6325 152.613 38.6162C152.613 38.3923 152.677 38.1783 152.764 38.0547C152.765 38.0368 152.766 38.0189 152.768 38.001C152.742 37.8263 152.726 37.5499 152.707 37.1143C152.702 36.9952 152.692 36.8797 152.684 36.7676C152.624 36.5433 152.603 36.4035 152.631 36.3203C152.625 36.2967 152.618 36.2729 152.613 36.248C152.402 35.266 152.108 34.5609 151.615 33.9023L151.537 33.7998C151.402 33.6695 151.218 33.4885 151.017 33.29C150.559 32.8279 150.03 32.435 149.525 32.1924C149.507 32.1834 149.488 32.1731 149.47 32.1641C148.956 31.9197 148.352 31.7211 147.64 31.5674C147.542 31.5833 147.396 31.5645 147.188 31.5107C147.165 31.5051 147.144 31.4982 147.124 31.4912C146.895 31.4799 146.629 31.4699 146.324 31.4629C146.133 31.4728 145.855 31.4766 145.451 31.4766C144.87 31.4766 144.549 31.4725 144.372 31.4453C143.797 31.4457 143.154 31.4518 142.439 31.459ZM43.8477 31.4766C43.7948 31.4974 43.7298 31.5175 43.6514 31.5342L43.2988 31.6143V32.5508C43.2871 33.7875 43.2871 40.6372 43.2988 42.3594V43.7002L43.6514 43.7812C43.7324 43.7979 43.7991 43.8184 43.8525 43.8408C43.8995 43.8405 43.9502 43.8389 44.0039 43.8389C44.2297 43.8389 44.3941 43.8417 44.5137 43.8506C44.8416 43.8518 45.2172 43.8523 45.6201 43.8506C45.6394 43.8386 45.6606 43.8302 45.6826 43.8271C45.7539 43.8271 46.4931 43.8045 47.3262 43.793C47.948 43.7774 48.312 43.7725 48.5244 43.7881C48.5358 43.7862 48.5476 43.7831 48.5596 43.7812C49.6174 43.6296 50.1812 43.5043 50.7695 43.2588L51.5693 42.9033C51.5916 42.8936 51.6129 42.8846 51.6328 42.876C51.7408 42.7987 51.8664 42.713 51.999 42.626C52.1418 42.5328 52.2791 42.4312 52.4111 42.3242L52.6924 42.0361L53.0605 41.6738L53.3965 41.1699C53.6547 40.7772 53.9245 40.2804 54.0068 40.0723C54.0349 39.9951 54.0673 39.9301 54.0986 39.876C54.1114 39.8393 54.1246 39.8027 54.1367 39.7656C54.1553 39.6609 54.18 39.5355 54.207 39.4131C54.2131 39.3902 54.2174 39.3657 54.2236 39.3408C54.233 39.2081 54.2628 39.083 54.3057 38.9824C54.3427 38.8032 54.3756 38.6254 54.3945 38.501C54.4065 38.4305 54.4212 38.3673 54.4375 38.3125C54.4417 38.0846 54.4489 37.8385 54.4531 37.5996C54.4549 37.5273 54.4532 37.458 54.4541 37.3916C54.4541 37.3766 54.4531 37.3613 54.4531 37.3457C54.4531 37.1947 54.4475 37.0469 54.4375 36.9023C54.4207 36.8479 54.4065 36.7838 54.3945 36.71C54.2184 35.6357 54.0543 35.1273 53.6553 34.4805C53.4457 34.1465 53.1854 33.8053 52.917 33.499L52.5752 33.1631L52.2803 32.8604C52.1346 32.7363 51.996 32.6341 51.8701 32.5625C51.7585 32.4949 51.6756 32.4358 51.6201 32.3867C51.6101 32.3804 51.5998 32.3744 51.5898 32.3682C51.4992 32.3434 51.3588 32.2734 51.1426 32.1582C51.0354 32.1043 50.9491 32.0513 50.8818 32.0049C50.7652 31.9724 50.6095 31.9244 50.4023 31.8574C50.3062 31.8275 50.204 31.7973 50.1006 31.7676C49.9993 31.7479 49.8779 31.7204 49.7334 31.6836C49.6651 31.666 49.6042 31.6445 49.5508 31.6211C49.4575 31.5982 49.3716 31.5789 49.2979 31.5635C48.5793 31.4884 47.6267 31.4766 46.1875 31.4766H43.8477ZM22.1641 40.835C21.7179 40.4306 21.2364 40.315 20.6963 40.4883C19.534 40.8696 19.4754 42.4988 20.6143 43.0303C20.6667 43.0546 20.7172 43.0833 20.7637 43.1133C20.8843 43.1338 21.0175 43.1455 21.166 43.1455C21.2638 43.1455 21.3473 43.1414 21.4209 43.1367C21.4796 43.1052 21.5509 43.0721 21.6357 43.041C22.1992 42.8446 22.5166 42.3712 22.5166 41.7012C22.5166 41.2507 22.4575 41.1006 22.1641 40.835ZM174.124 40.4072C173.407 40.3101 172.817 40.7428 172.59 41.3008C172.577 41.3471 172.562 41.4035 172.539 41.4697C172.535 41.4823 172.529 41.4945 172.524 41.5068C172.433 41.8932 172.513 42.3132 172.832 42.6484C173.208 43.0528 173.49 43.1458 174.089 43.0996C174.453 43.0649 174.687 42.9604 174.934 42.7295C175.744 41.9208 175.275 40.5576 174.124 40.4072ZM184.081 32.0996C184.081 30.8752 182.531 30.2864 181.627 31.1875C181.369 31.4301 181.321 31.5915 181.321 32.0996C181.321 32.8159 181.627 33.2554 182.249 33.4287C182.754 33.5789 182.754 33.5784 183.188 33.3936C183.752 33.1624 184.081 32.6887 184.081 32.0996ZM13.3691 31.2334C12.7587 30.6329 12.1955 30.6096 11.5498 31.1641C10.7866 31.8111 10.8568 32.7241 11.7139 33.3018C12.1951 33.6252 12.8644 33.602 13.2637 33.2441C13.569 32.99 13.8271 32.4003 13.8271 31.9844C13.8271 31.788 13.6744 31.5222 13.3691 31.2334ZM41.5967 0.0498047C41.9028 -0.00792726 44.1446 -0.0196622 45.8584 0.0380859L46.3516 0.0498047V4.41699C46.3516 7.03963 46.3983 8.84225 46.4688 8.94629C46.5627 9.08493 46.9038 8.80752 48.1953 7.50195C49.0877 6.61231 50.4029 5.2606 51.1191 4.49805C51.8471 3.7355 53.1263 2.41782 53.96 1.58594L55.498 0.0498047H58.2578C59.7724 0.0498063 61.0408 0.0953893 61.0762 0.141602C61.1114 0.199345 60.9115 0.465209 60.6416 0.753906C60.3715 1.04275 59.0914 2.38371 57.7998 3.74707C56.5083 5.1104 54.8413 6.8667 54.0781 7.65234C53.3149 8.42645 52.6924 9.10808 52.6924 9.1543C52.6952 9.25007 53.9383 10.8661 55.3691 12.6318C56.0736 13.4983 57.9525 15.8665 58.7744 16.918C59.9248 18.3965 60.7348 19.3442 60.8643 19.3447C61.0169 19.3447 61.2053 18.9746 62.1094 16.918C62.4381 16.1901 62.896 15.1963 63.1426 14.7227C63.3892 14.2488 63.8822 13.1974 64.2344 12.4004C64.5983 11.5918 65.1147 10.4717 65.3848 9.91699C67.1458 6.2201 67.7568 4.91406 68.2969 3.68945C68.6373 2.92699 69.1537 1.80593 69.459 1.20508L70.0107 0.107422H75.3535L76.1875 1.84082C76.6454 2.79972 77.3265 4.27794 77.7021 5.13281C78.0779 5.9878 78.7472 7.44385 79.2051 8.36816C79.8591 9.72035 80.0935 10.1948 80.0947 10.3604C80.1751 10.516 80.2665 10.6949 80.3682 10.9004C80.5249 11.1385 80.7299 11.5318 80.8721 11.8926C80.8989 11.9572 80.9174 12.0076 80.9258 12.0469C81.0856 12.3798 81.2627 12.7509 81.459 13.1631C81.9713 14.2443 82.1807 14.6746 82.207 14.8447C82.2934 15.0288 82.3738 15.1999 82.4463 15.3555C82.6065 15.5851 82.8324 16.0104 82.9854 16.3984C83.0285 16.5153 83.0471 16.585 83.0342 16.627C83.1031 16.7266 83.1835 16.8731 83.2676 17.0684C83.276 17.0863 83.2855 17.105 83.2949 17.125C83.4528 17.3614 83.6626 17.763 83.8076 18.1309C83.8294 18.1899 83.8446 18.2377 83.8535 18.2754C83.8989 18.3658 83.941 18.4546 83.9834 18.5361C84.1152 18.8022 84.2207 19.0177 84.3047 19.1914C84.5746 19.6769 84.8892 20.3513 84.9443 20.6025C84.9666 20.6525 84.9811 20.6801 84.9814 20.6846C84.9814 20.7411 84.8889 20.7505 84.7764 20.7266C84.6093 20.7436 84.3314 20.7581 83.9893 20.7695C83.9115 20.8344 83.7241 20.8467 83.2793 20.8467C82.9076 20.8467 82.7151 20.8369 82.6162 20.7969C81.9329 20.8034 81.224 20.8032 80.6797 20.791C80.6157 20.8314 80.5029 20.8467 80.3086 20.8467C80.0938 20.8467 79.8447 20.7908 79.7139 20.7314H79.6865L79.6787 20.7148C79.6736 20.7119 79.6676 20.7109 79.6631 20.708C79.6308 20.6833 79.5961 20.6454 79.5605 20.6016C79.5018 20.5426 79.4542 20.4751 79.4326 20.4111C79.4023 20.3559 79.3756 20.2995 79.3574 20.2461C79.3017 20.1036 79.2758 20.0234 79.292 19.9785C79.2078 19.8141 79.113 19.6171 79.002 19.3848C78.8489 19.1007 78.651 18.6943 78.4062 18.1543L78.1064 17.4912C77.8593 16.9871 77.6924 16.6902 77.5732 16.5332C77.5361 16.5021 77.4976 16.479 77.4609 16.4668L73.123 16.4443C70.8708 16.4349 69.5547 16.4277 68.7754 16.4346C68.6665 16.4535 68.5098 16.4672 68.2852 16.4795L67.6484 16.5088C67.5972 16.531 67.5762 16.5595 67.5449 16.5947C67.5245 16.615 67.4909 16.6696 67.4482 16.751L66.7002 18.582C66.2311 19.7246 65.7734 20.7056 65.6904 20.7539C65.62 20.8001 63.3772 20.8467 60.7236 20.8467C57.0499 20.8467 55.8633 20.8119 55.7217 20.708C55.5456 20.5694 54.5712 19.3789 50.5205 14.3301C49.8516 13.4987 49.2761 12.8747 49.1582 12.874C49.0525 12.874 48.3714 13.4866 47.6553 14.249L46.3516 15.6123L46.3281 18.2002L46.293 20.7891L43.8857 20.8115C42.5591 20.8346 41.4201 20.8001 41.3379 20.7539C41.3305 20.7493 41.3253 20.7408 41.3184 20.7314H41.3027V20.709C41.2299 20.5707 41.1824 20.1564 41.1621 19.5176C41.1269 18.4433 41.103 18.351 40.8682 18.2471C40.8241 18.2282 40.787 18.2064 40.7539 18.1875L39.3008 18.1836C39.2769 18.1939 39.2513 18.2002 39.2246 18.2002C38.7549 18.2349 36.9935 18.2466 36.8057 18.2119C36.7762 18.2054 36.7485 18.1925 36.7227 18.1768C35.8391 18.1733 35.0982 18.1708 34.4746 18.168C34.2177 18.1853 33.8393 18.1955 33.2949 18.2002C32.3674 18.2002 31.5334 18.235 31.4277 18.2812C31.2262 18.364 28.9378 20.467 26.0859 23.1924L24.418 24.7744L20.6143 24.7861H10.3369C8.61359 24.7926 7.30791 24.8178 7.1582 24.8438C6.91178 24.8899 6.75898 25.0172 6.66504 25.248C6.50066 25.6409 5.56161 26.5195 5.02148 26.7969C4.52841 27.051 3.57739 27.1781 2.95508 27.0742C2.20362 26.9471 1.67497 26.6809 1.08789 26.1494C0.395254 25.5256 0.101716 24.9594 0.0195312 24.1045C-0.191701 22.1173 1.34659 20.4883 3.43652 20.4883C4.76323 20.4884 6.12508 21.2859 6.60645 22.3604C6.74731 22.6606 6.90011 22.8224 7.06445 22.834C7.2066 22.834 10.9638 22.8566 15.4131 22.8682L23.5146 22.8916L24.3359 22.1289C24.7821 21.713 25.581 20.9508 26.1094 20.4424C26.626 19.934 27.8117 18.813 28.7393 17.958L30.418 16.3984L41.127 16.2832L41.1621 14.4453C41.1856 13.0493 41.1503 12.5751 41.0449 12.5049C40.8101 12.3431 27.9072 12.5277 27.6592 12.6895C27.5535 12.7588 26.6377 13.6024 25.6162 14.5498L23.7725 16.2832L15.7881 16.3984L15.5303 16.8486C15.178 17.4725 14.6262 18.0277 14.0273 18.3281C13.6164 18.5476 13.3579 18.5937 12.4189 18.5938C11.4209 18.5938 11.2441 18.5585 10.7627 18.2812C8.61429 17.0334 8.29743 14.5955 10.0703 12.874C10.8805 12.0769 12.1255 11.7536 13.4053 12.0078C14.2506 12.1813 15.2247 13.002 15.7061 13.9492C15.8586 14.2378 15.906 14.2607 16.6338 14.2607C17.0565 14.2607 18.665 14.2726 20.1914 14.2842L22.9746 14.3184L23.4209 13.9023C23.668 13.6708 24.5125 12.8735 25.3105 12.1113C26.1089 11.3604 26.8728 10.6795 27.0137 10.5986C27.2137 10.4947 28.9868 10.4598 34.1523 10.4482C40.0113 10.4482 41.0565 10.4248 41.1035 10.2861C41.2208 9.9847 41.1154 6.98312 40.9863 6.85449C40.9041 6.77361 38.3203 6.75033 32.79 6.77344L24.7236 6.80859L24.501 7.09766C24.3718 7.25941 24.101 7.6174 23.8896 7.90625C22.7506 9.45422 20.1325 9.61588 18.7236 8.22949C17.3265 6.85459 17.268 4.95997 18.5947 3.52734C19.1113 2.96127 19.5338 2.71806 20.3438 2.5332C21.8349 2.18659 23.1506 2.70694 24.0664 4.00098L24.583 4.72852H41.127L41.1855 2.41797L41.2441 0.119141L41.5967 0.0498047ZM135.529 0.0498047C135.58 0.0498235 135.617 0.0636657 135.638 0.0839844C136.478 0.0629435 137.397 0.0665132 137.76 0.107422C137.922 0.126994 138.041 0.14324 138.147 0.180664C138.329 0.204047 138.38 0.232044 138.348 0.269531C138.344 0.272113 138.34 0.275081 138.338 0.279297C138.539 0.420675 138.771 0.699401 139.263 1.29688C139.756 1.90923 140.496 2.78752 140.884 3.22656C141.553 3.98933 144.911 7.91765 147.447 10.8984C148.398 12.019 148.562 12.1811 148.598 11.9385C148.63 11.6307 148.662 11.4062 148.698 11.2471C148.706 10.8441 148.715 10.3555 148.722 9.81152C148.72 9.80431 148.717 9.79672 148.715 9.78906C148.679 9.62284 148.686 9.46592 148.728 9.35254C148.74 8.26276 148.75 7.0025 148.757 5.78223C148.746 5.24556 148.738 4.53413 148.738 3.64258C148.742 2.81099 148.748 2.16489 148.758 1.66797C148.757 1.6059 148.756 1.54597 148.755 1.48828C148.743 1.42038 148.738 1.32857 148.738 1.20508C148.738 1.13483 148.741 1.07466 148.744 1.02344C148.741 0.892982 148.742 0.786576 148.738 0.708008L148.715 0.165039L148.899 0.166016C148.901 0.165868 148.902 0.165039 148.903 0.165039C148.906 0.165049 148.909 0.16582 148.912 0.166016L148.963 0.166992C149.219 0.115493 149.803 0.103003 151.146 0.0957031C152.437 0.0841495 153.553 0.107752 153.635 0.130859C153.807 0.198931 153.826 0.433637 153.731 0.544922L153.735 0.925781C153.741 0.880114 153.748 0.940855 153.752 1.12402C153.773 1.56759 153.774 2.28143 153.756 2.78027C153.759 3.07214 153.761 3.34918 153.764 3.59766C153.782 3.70969 153.787 3.88338 153.787 4.15137C153.787 4.3545 153.783 4.50332 153.774 4.6123C153.774 4.61395 153.774 4.61558 153.774 4.61719C153.781 4.63972 153.787 4.66999 153.787 4.70605C153.787 4.72028 153.789 4.73351 153.793 4.74609C153.916 4.89114 154.915 4.90234 162.241 4.90234H170.496C170.59 4.9017 170.754 4.694 170.871 4.44043C170.988 4.1863 171.177 3.89702 171.294 3.79297C171.342 3.751 171.38 3.71829 171.409 3.69727C171.501 3.59238 171.599 3.49497 171.703 3.4043C171.725 3.3761 171.757 3.33998 171.799 3.2959C172.186 2.87999 173.161 2.55664 174.042 2.55664C175.204 2.55673 176.002 2.97296 176.789 4.0127C176.855 4.09401 176.883 4.14066 176.862 4.16895C176.961 4.32337 177.045 4.48293 177.114 4.64648C177.247 4.87435 177.388 5.23358 177.388 5.42188C177.388 5.47648 177.37 5.51721 177.343 5.5459C177.361 5.73625 177.362 5.92763 177.345 6.11816C177.404 6.19085 177.391 6.33878 177.317 6.6123C177.284 6.72902 177.237 6.80345 177.188 6.8418C177.167 6.9049 177.145 6.96813 177.119 7.03027C177.177 7.09121 177.115 7.22371 176.941 7.50195C176.657 7.95815 176.116 8.46851 175.618 8.76074C175.609 8.77797 175.594 8.78549 175.571 8.78613C175.53 8.80928 175.49 8.83369 175.45 8.85352C175.128 9.0156 174.543 9.12043 174.013 9.13672C173.964 9.14679 173.92 9.14663 173.888 9.13672C173.634 9.13765 173.399 9.12 173.22 9.07324C172.163 8.80755 171.071 7.94117 170.824 7.17871L170.754 6.98145L170.637 6.75098H162.229C154.812 6.75098 153.788 6.77382 153.787 6.92383V10.5635H167.889L168.111 10.7705C168.224 10.7883 168.49 11.0376 169.169 11.6846L170.284 12.7471L170.239 12.748C170.474 12.9653 170.682 13.1572 170.868 13.3262L170.871 13.3018L171.47 13.8447C172.057 14.3531 172.104 14.376 172.797 14.376C173.141 14.376 173.322 14.3853 173.416 14.4248C173.652 14.4189 173.849 14.4192 174.011 14.4248C174.327 14.3826 175.024 14.376 176.555 14.376H179.36L179.428 14.2129C179.426 14.1936 179.432 14.1782 179.443 14.166C179.445 14.1214 179.465 14.0556 179.501 13.96C179.759 13.313 180.582 12.5159 181.298 12.2617C181.354 12.2406 181.395 12.2332 181.426 12.2432C181.692 12.1306 181.952 12.0654 182.179 12.0654C182.24 12.0654 182.292 12.0685 182.336 12.0732C182.37 12.0565 182.412 12.0428 182.46 12.0312C182.753 11.9504 183.74 12.1237 184.116 12.3086C184.586 12.5513 185.114 12.9789 185.372 13.3369L185.619 13.6826H185.584C185.661 13.8048 185.732 13.9321 185.795 14.0645C186.148 14.82 186.155 15.6585 185.89 16.4092C185.899 16.4572 185.877 16.5385 185.83 16.6758C185.76 16.8606 185.607 17.1033 185.478 17.2188C185.475 17.2213 185.471 17.2231 185.469 17.2256C185.136 17.6923 184.678 18.0811 184.116 18.3281C184.111 18.3304 184.105 18.3308 184.1 18.333C183.961 18.4361 183.681 18.5302 183.294 18.5938C183.002 18.6391 182.877 18.6481 182.825 18.5918C182.702 18.6002 182.581 18.6053 182.466 18.6045C182.375 18.6527 182.21 18.6394 181.943 18.5703C181.885 18.5563 181.839 18.5369 181.805 18.5156C181.698 18.4829 181.59 18.4428 181.482 18.3965C181.48 18.4117 181.477 18.4199 181.474 18.4199C181.449 18.4189 181.262 18.3272 181.063 18.2354C180.809 18.1131 180.685 18.0142 180.691 17.9463C180.345 17.6979 180.033 17.4018 179.804 17.0957C179.732 17.0356 179.635 16.9004 179.514 16.6875C179.39 16.4648 179.221 16.2774 179.118 16.2344L179.079 16.2246H177.904C177.079 16.2246 176.72 16.218 176.565 16.167C176.192 16.1697 175.796 16.1738 175.392 16.1787C175.119 16.182 174.85 16.1827 174.589 16.1846C174.526 16.2132 174.428 16.2246 174.276 16.2246C174.133 16.2246 174.037 16.2139 173.974 16.1885C173.282 16.1905 172.68 16.1851 172.257 16.1758C172.188 16.2132 172.067 16.2246 171.857 16.2246C171.674 16.2246 171.548 16.2188 171.341 16.0947C171.266 16.0734 171.191 16.0235 171.129 15.9482C171.01 15.858 170.868 15.7379 170.689 15.5791C170.594 15.553 170.39 15.3628 169.932 14.9307L169.11 14.1572L169.169 14.1553C168.933 13.9304 168.671 13.6827 168.382 13.4062L167.781 12.835L167.525 12.6436C167.267 12.4356 167.032 12.4121 165.271 12.4121C164.199 12.4121 163.709 12.4045 163.485 12.3613C163.398 12.3627 163.308 12.3647 163.216 12.3662C163.09 12.3681 162.969 12.3676 162.854 12.3691C162.791 12.4 162.691 12.4121 162.535 12.4121C162.391 12.4121 162.295 12.4015 162.231 12.376C161.544 12.3818 161.072 12.3786 160.762 12.3643C160.608 12.3814 160.378 12.395 160.031 12.4014C160.022 12.4095 160.02 12.4111 160.02 12.4014C159.48 12.4111 158.664 12.4121 157.428 12.4121C154.359 12.4121 153.818 12.4342 153.79 12.5732L153.811 14.3535L153.842 16.2129C154.172 16.3467 156.095 16.3841 161.36 16.3633C162.523 16.3559 163.135 16.3769 163.425 16.4502L164.578 16.4561L164.794 16.6553C164.85 16.6997 164.908 16.7494 164.966 16.8027L165.353 17.1377L165.315 17.1387L165.819 17.6045L165.822 17.5879L166.351 18.0508L166.879 18.5244L166.812 18.5254C167.396 19.0703 168.053 19.6849 168.603 20.1992C168.669 20.2511 168.758 20.3272 168.875 20.4307L169.345 20.835L169.284 20.8359C169.305 20.8554 169.325 20.874 169.345 20.8926L170.16 21.6582L170.167 21.5977L170.859 22.2676C170.943 22.3445 171.025 22.4181 171.104 22.4873C171.134 22.501 171.167 22.5284 171.202 22.5732C171.324 22.6788 171.431 22.7679 171.512 22.8301C171.997 22.9263 173.637 22.9258 179.854 22.9258H188.231C188.265 22.911 188.297 22.881 188.332 22.8447L188.519 22.4414C188.555 22.3619 188.605 22.2769 188.663 22.1885C188.708 22.106 188.773 22.0069 188.842 21.9238C188.853 21.8828 188.893 21.82 188.953 21.7246C189.093 21.5152 189.22 21.3986 189.314 21.377C189.375 21.3368 189.447 21.2921 189.523 21.248C189.665 21.1289 189.81 21.024 189.947 20.9375C189.948 20.9338 189.951 20.931 189.951 20.9277C189.951 20.8929 189.985 20.8772 190.026 20.8867C190.102 20.8426 190.176 20.806 190.245 20.7773C190.445 20.6965 190.65 20.6367 190.859 20.5957C190.986 20.5382 191.159 20.5 191.337 20.5C191.36 20.5 191.382 20.5134 191.402 20.5332C191.641 20.524 191.88 20.5385 192.115 20.5752C192.161 20.5783 192.207 20.5858 192.252 20.5996C192.363 20.6211 192.472 20.6475 192.58 20.6787C192.626 20.6538 192.72 20.687 192.91 20.7656C193.046 20.8207 193.149 20.8753 193.219 20.9258C193.532 21.0828 193.82 21.2859 194.071 21.5273L194.073 21.4814L194.354 21.8057C194.552 22.0242 194.64 22.1626 194.629 22.2451C194.677 22.3328 194.725 22.4271 194.768 22.5225C194.804 22.5581 194.843 22.6108 194.883 22.6836C194.992 22.8909 195.019 23.0543 194.975 23.1562C194.992 23.2823 194.996 23.3628 194.981 23.415C194.994 23.514 194.984 23.5639 194.94 23.5908C194.948 23.6945 194.95 23.7988 194.948 23.9033C194.993 23.9486 195.003 24.0262 194.983 24.1553C195.024 24.3339 194.965 24.6192 194.834 24.9336C194.857 24.9477 194.867 24.9621 194.859 24.9824C194.639 25.4347 194.492 25.666 194.404 25.6904C194.308 25.8212 194.205 25.9458 194.094 26.0566L194.12 26.0576L193.791 26.335C193.565 26.5325 193.423 26.6195 193.34 26.6045C193.249 26.6535 193.156 26.6976 193.062 26.7393C193.026 26.775 192.973 26.8153 192.898 26.8545C192.706 26.9524 192.55 26.9825 192.445 26.9541C191.777 27.1252 191.081 27.1171 190.491 26.9004C189.763 26.6461 188.859 25.8958 188.542 25.3066C188.407 25.0702 188.249 24.8656 188.157 24.7988C188.062 24.7711 187.933 24.7606 187.744 24.752C187.548 24.7445 187.322 24.7286 187.143 24.7178C186.394 24.7742 184.43 24.7744 179.278 24.7744H170.953L170.852 24.6943C170.721 24.6285 170.563 24.5218 170.39 24.3701L169.932 23.9775L169.974 23.9756C169.679 23.7115 169.327 23.3825 169.052 23.1113L168.596 22.6494C168.475 22.5659 168.274 22.3845 167.936 22.0713L167.114 21.3203L167.141 21.3193L166.017 20.2686L165.646 19.9453L165.118 19.4717L165.165 19.4697L163.803 18.1895H154.118C154.09 18.2011 154.059 18.2144 154.022 18.2236C153.894 18.2581 153.788 18.3614 153.787 18.4648V20.7314L151.592 20.7197H149.579C149.563 20.7263 149.545 20.7304 149.525 20.7305C149.519 20.7305 149.512 20.7252 149.501 20.7197H149.384L148.93 20.1748C148.793 20.0241 148.643 19.8522 148.492 19.668C147.717 18.7206 145.826 16.4678 143.22 13.3945C142.727 12.8284 141.599 11.4878 140.695 10.4248C139.803 9.3619 139.04 8.50717 139.017 8.53027C138.993 8.55588 138.981 11.1888 138.981 14.376C138.993 17.5648 138.958 20.2923 138.923 20.4541C138.913 20.4964 138.895 20.536 138.876 20.5723V20.7314H133.944V20.5898C133.935 20.5717 133.925 20.5537 133.921 20.5342C133.886 20.3599 133.886 19.1246 133.933 18.5703C133.934 18.5583 133.94 18.5474 133.944 18.5361V16.5996C133.932 16.5833 133.924 16.5662 133.921 16.5488C133.921 16.468 133.897 12.7705 133.886 8.33398C133.885 7.7712 133.884 7.23962 133.884 6.73926C133.872 6.72708 133.873 6.70627 133.884 6.67773C133.884 6.5842 133.884 6.49175 133.884 6.40039C133.822 6.39507 133.821 6.37849 133.884 6.33105C133.884 6.23713 133.884 6.14435 133.884 6.05273C133.832 6.04603 133.824 6.03059 133.858 6C133.823 5.96813 133.832 5.95228 133.884 5.94629C133.884 5.84894 133.884 5.75291 133.884 5.6582C133.871 5.64172 133.87 5.62817 133.884 5.61426C133.884 4.86073 133.887 4.19127 133.89 3.60254C133.885 3.56993 133.883 3.53262 133.886 3.49219C133.887 3.47737 133.889 3.46306 133.891 3.44922C133.891 3.38976 133.891 3.33117 133.892 3.27344C133.86 3.05688 133.845 2.66966 133.839 2.01367C133.819 0.891923 133.833 0.59726 133.941 0.573242C133.943 0.537428 133.945 0.504219 133.947 0.473633C133.934 0.464701 133.921 0.454418 133.909 0.442383C133.827 0.361511 133.863 0.271447 133.946 0.234375C133.968 0.206315 133.995 0.177628 134.026 0.15332C134.167 0.0380153 134.19 0.0379086 134.132 0.141602C134.126 0.151004 134.124 0.161198 134.12 0.169922C134.299 0.144168 134.64 0.12129 135.046 0.104492C135.108 0.0901524 135.182 0.078703 135.271 0.0722656C135.339 0.0659492 135.397 0.0646293 135.446 0.0634766C135.468 0.0555276 135.496 0.0498047 135.529 0.0498047ZM4.08203 22.6377C3.48331 22.3373 3.04874 22.4176 2.53223 22.9258C2.08605 23.3648 2.06236 23.4234 2.13281 23.874C2.22683 24.4515 2.5675 24.8555 3.07227 24.9941C3.57715 25.1443 3.57728 25.1448 4.01172 24.96C4.52826 24.752 4.78606 24.359 4.78613 23.793C4.78613 23.25 4.56333 22.8803 4.08203 22.6377ZM192.629 22.8457C191.525 21.6904 189.623 23.03 190.374 24.4395C190.703 25.0748 191.701 25.3065 192.37 24.9023C193.051 24.498 193.18 23.4235 192.629 22.8457ZM89.2676 0.0722656L91.6152 0.107422L91.6504 0.650391C91.6728 0.966158 91.6705 1.10317 91.6123 1.16211C91.6097 1.29677 91.6063 1.41631 91.6035 1.52246C91.6766 1.69126 91.6742 2.18888 91.6504 3.6543C91.6348 4.54574 91.6191 5.08489 91.5938 5.41211C91.6033 5.50532 91.6163 5.61156 91.627 5.71094C91.6404 5.87574 91.64 6.031 91.6299 6.16895C91.6661 6.26989 91.6738 6.45856 91.6738 6.80859C91.6738 7.17705 91.6646 7.36622 91.623 7.46289C91.6617 7.90268 91.6738 8.65079 91.6738 9.90527C91.6738 11.2489 91.6661 11.8725 91.625 12.1621C91.6257 12.1833 91.6272 12.2041 91.6279 12.2246C91.6525 12.4815 91.662 12.6371 91.6504 12.7314C91.6538 12.7907 91.6583 12.8466 91.6621 12.8994C91.6776 12.9703 91.6919 13.0363 91.7051 13.0977C91.7096 13.1114 91.7175 13.1246 91.7217 13.1396C91.7577 13.2707 91.7766 13.3731 91.7822 13.4512C91.7859 13.4629 91.792 13.4739 91.792 13.4863C91.792 13.9021 92.6249 15.2882 93.1416 15.7393C93.299 15.8763 93.4571 16.0012 93.5791 16.0898C93.8669 16.2582 94.1887 16.4146 94.3867 16.4678C94.4634 16.4929 94.536 16.524 94.6006 16.5557C94.6538 16.5705 94.7061 16.5848 94.7568 16.5977C94.855 16.6028 94.9894 16.6172 95.1729 16.6406C95.5368 16.6868 96.1477 16.7217 96.5234 16.7217C96.7507 16.7172 96.9025 16.7185 97.0029 16.7324C97.2373 16.6938 97.5651 16.6249 97.7568 16.583C97.8591 16.5553 97.9338 16.5377 97.9883 16.5322C98.0162 16.5235 98.0453 16.5179 98.0742 16.5137C98.1491 16.4672 98.2424 16.4178 98.3438 16.375C98.5785 16.2826 98.9186 16.0977 99.1064 15.9707L99.2051 15.9023C99.4663 15.7099 99.7067 15.4815 99.9199 15.2256C100.315 14.6577 100.7 13.8544 100.774 13.3828C100.824 13.0859 100.861 12.8695 100.895 12.7119C100.927 11.8433 100.953 9.85697 100.962 7.69824L100.966 5.65234C100.953 5.51474 100.95 5.31283 100.95 5.01758C100.95 4.69599 100.954 4.4853 100.97 4.34766L100.971 3.8252C100.957 3.47388 100.957 2.9725 100.974 2.2793L100.992 1.16699L100.95 1.16992V0.165039H101.181C101.446 0.112941 102.054 0.107564 103.47 0.107422C103.471 0.107356 103.473 0.107488 103.475 0.107422C103.673 0.101122 103.837 0.101271 103.972 0.108398C104.834 0.109386 105.344 0.113346 105.646 0.135742C105.764 0.105742 105.851 0.0832029 105.917 0.154297L105.999 0.15332V0.198242C106.063 0.227192 106.084 0.265193 106.093 0.31543C106.103 0.369578 106.095 0.407085 106.018 0.435547C106.118 1.00331 106.116 2.48952 106.116 6.20801C106.116 9.52387 106.081 12.3547 106.046 12.5049C106.025 12.5671 105.989 12.6225 105.952 12.667C105.943 12.8765 105.933 13.0707 105.92 13.2529C106.018 13.3104 106.014 13.4571 105.929 13.7754C105.908 13.8481 105.882 13.9045 105.854 13.9463C105.78 14.5023 105.662 14.9589 105.467 15.4648C105.488 15.5118 105.455 15.6039 105.377 15.7861C105.312 15.9411 105.245 16.0502 105.187 16.1182C105.122 16.2577 105.054 16.4048 104.978 16.5596C104.817 16.8892 104.632 17.2012 104.428 17.4961H104.484L104.238 17.8428C104.071 18.0769 103.957 18.2037 103.884 18.2305C103.854 18.2659 103.82 18.3071 103.78 18.3506C103.692 18.4416 103.615 18.5164 103.552 18.5771C103.499 18.648 103.376 18.7467 103.181 18.8818L103.055 18.9688C102.824 19.155 102.58 19.3288 102.323 19.4902C102.285 19.5492 102.184 19.6273 102.019 19.7256C101.862 19.8149 101.755 19.871 101.684 19.8936C101.518 19.9854 101.327 20.0771 101.149 20.1416C101.114 20.156 101.082 20.1649 101.054 20.1748C100.667 20.3654 100.04 20.5954 99.623 20.6729C99.4605 20.7019 99.3583 20.715 99.2939 20.707C99.157 20.7666 98.8833 20.8243 98.3438 20.916C98.1003 20.9523 97.9864 20.9611 97.9355 20.9111C97.8615 20.9191 97.7868 20.9248 97.7119 20.9316C97.6667 20.9595 97.604 20.986 97.5215 21.0078C97.185 21.0961 96.954 21.1042 96.8301 21.0361C96.5772 21.0698 96.2712 21.0788 95.9648 21.0576C95.9016 21.0667 95.8165 21.07 95.7021 21.0664C95.4556 21.0549 95.1613 21.0317 95.0557 20.9971C95.0116 20.9884 94.9732 20.9651 94.9395 20.9385C94.9352 20.9382 94.931 20.9388 94.9268 20.9385C94.8229 20.9313 94.7222 20.9217 94.624 20.9131C94.5518 20.95 94.442 20.9581 94.291 20.9385C94.0947 20.9383 93.7162 20.8551 93.001 20.6729C92.7393 20.6078 92.5166 20.5479 92.3281 20.4932C92.3186 20.4948 92.3111 20.4951 92.3047 20.4941C92.2921 20.4933 92.2855 20.4896 92.2832 20.4805C91.9332 20.377 91.7098 20.2873 91.5811 20.2051C91.4739 20.1603 91.3913 20.1159 91.332 20.0742C91.2365 20.0313 91.1286 19.9782 91.0127 19.916C91.0064 19.9195 91.0001 19.9219 90.9932 19.9219C90.9679 19.9217 90.8531 19.8622 90.6924 19.7686C90.5949 19.7386 90.4392 19.6466 90.1953 19.4834C89.9336 19.3085 89.6979 19.1379 89.4814 18.9668C89.4083 18.9138 89.2551 18.796 89.0908 18.6514L88.6807 18.3164L88.7568 18.3135C88.7314 18.2871 88.7066 18.2602 88.6816 18.2334L88.6807 18.2471L88.5947 18.1377C88.4248 17.9479 88.2637 17.747 88.1064 17.5273L88.0342 17.4385L88.0381 17.4375C88.0038 17.3982 87.9651 17.3561 87.9287 17.3105C87.7789 17.1194 87.7047 16.9956 87.7031 16.918C87.6315 16.801 87.5629 16.6851 87.499 16.5684C87.4676 16.5544 87.4337 16.5223 87.4004 16.4678C87.3652 16.4216 87.2833 16.2367 87.2246 16.0635C87.1841 15.9678 87.1603 15.9021 87.1572 15.8574C87.0659 15.6381 86.9829 15.4148 86.9111 15.1816C86.8568 15.0942 86.8046 14.9651 86.7666 14.8154C86.7173 14.6214 86.6629 14.348 86.6182 14.1104C86.6044 14.0801 86.5893 14.0463 86.5781 14.0068C86.5164 13.7759 86.499 13.6349 86.5303 13.5527C86.5271 13.5077 86.5279 13.4719 86.5322 13.4434C86.5088 13.2346 86.5315 13.1536 86.6016 13.123C86.6007 13.1019 86.6004 13.0804 86.5996 13.0586C86.5447 13.0126 86.4902 12.9379 86.4609 12.8516C86.3711 12.4981 86.3623 12.2287 86.4316 12.0801C86.403 10.7435 86.4049 7.69869 86.4326 5.83301C86.3963 5.46959 86.3906 4.71884 86.3906 3.16895V0.165039L86.6611 0.107422C86.8039 0.0728405 87.9773 0.0607232 89.2676 0.0722656ZM119.208 0.0498047C119.53 0.0498047 119.718 0.0555715 119.827 0.0830078C121.485 0.0429629 122.062 0.0902651 122.178 0.261719C122.241 0.287702 122.267 0.319891 122.284 0.361328C122.348 0.53198 123.095 2.13733 124.131 4.33984C124.147 4.35146 124.153 4.36811 124.153 4.38867C125.007 6.20336 126.053 8.41607 127.075 10.5635C130.668 18.1082 131.831 20.5695 131.831 20.6504C131.831 20.66 131.825 20.6672 131.819 20.6748C131.825 20.688 131.83 20.6946 131.83 20.6963C131.83 20.6995 131.808 20.7014 131.765 20.7041C131.726 20.7143 131.675 20.7178 131.616 20.7119C131.205 20.7249 130.249 20.7314 129.142 20.7314H126.465L126.002 19.668C125.825 19.32 125.607 18.8703 125.385 18.3857L124.516 16.4561L119.467 16.4795L114.43 16.5137L113.549 18.5361C113.067 19.6451 112.633 20.6042 112.586 20.6504C112.585 20.6517 112.582 20.6521 112.581 20.6533L112.551 20.7314H112.473C112.46 20.737 112.448 20.7412 112.434 20.7422C112.351 20.7537 112.152 20.7658 111.987 20.7773C111.862 20.7862 111.702 20.7815 111.587 20.7686C111.131 20.7732 110.468 20.7674 109.498 20.7539C108.277 20.7424 107.291 20.7077 107.291 20.6846C107.291 20.6353 107.441 20.285 107.688 19.749C107.689 19.7349 107.694 19.7236 107.703 19.7139C107.863 19.3665 108.063 18.944 108.289 18.4775C108.323 18.4073 108.357 18.3357 108.392 18.2637C108.345 18.181 108.346 18.1708 108.41 18.2236C108.874 17.2636 109.405 16.1524 109.925 15.0537C109.921 15.0463 109.916 15.0401 109.909 15.0352C109.875 14.9904 109.896 14.9562 109.972 14.9541C109.994 14.9063 110.017 14.8583 110.039 14.8105C110.028 14.7728 110.041 14.7405 110.077 14.7285C110.102 14.6754 110.127 14.6223 110.152 14.5693C110.147 14.5396 110.159 14.5139 110.185 14.501C110.214 14.4396 110.243 14.3785 110.271 14.3174C110.273 14.3028 110.278 14.291 110.288 14.2812C110.321 14.2124 110.353 14.1436 110.385 14.0752C110.386 14.0669 110.389 14.06 110.395 14.0537C110.776 13.2429 111.138 12.4684 111.447 11.7998C111.429 11.7628 111.444 11.7356 111.482 11.7246C111.506 11.6736 111.53 11.6206 111.555 11.5664C111.553 11.5637 111.554 11.5599 111.553 11.5576C111.525 11.5304 111.541 11.5036 111.589 11.4932C111.69 11.2744 111.803 11.0336 111.921 10.7793C111.917 10.7716 111.912 10.7648 111.905 10.7598C111.871 10.7153 111.892 10.6821 111.967 10.6797C111.989 10.6315 112.012 10.5832 112.035 10.5342C112.025 10.4978 112.037 10.4676 112.071 10.4551C112.095 10.4044 112.118 10.353 112.142 10.3018C112.141 10.3007 112.141 10.2986 112.14 10.2979C112.109 10.2581 112.123 10.2276 112.18 10.2197C112.209 10.1571 112.238 10.0944 112.268 10.0312C112.269 10.0241 112.272 10.0185 112.276 10.0127C112.36 9.83174 112.446 9.64979 112.53 9.46875C112.54 9.4333 112.554 9.39008 112.574 9.33887C112.673 9.08014 112.772 8.8873 112.857 8.7627C113.001 8.45445 113.136 8.16323 113.256 7.90625C113.265 7.88676 113.274 7.8668 113.283 7.84668C113.293 7.82261 113.302 7.79578 113.314 7.76758C113.348 7.6867 113.382 7.61779 113.415 7.56055C113.852 6.61898 114.499 5.21501 115.057 4C115.047 3.98798 115.047 3.98762 115.062 3.98926C115.111 3.88291 115.159 3.77779 115.206 3.6748C115.207 3.6701 115.21 3.66617 115.212 3.66211C115.29 3.49159 115.367 3.32692 115.439 3.16895C115.556 2.91895 115.67 2.67501 115.78 2.44141L115.765 2.40918C115.761 2.3859 115.778 2.36935 115.816 2.36328C115.893 2.19995 115.968 2.04224 116.04 1.8916C116.047 1.84855 116.066 1.79031 116.097 1.71289C116.223 1.3822 116.346 1.15701 116.446 1.04785C116.463 1.01393 116.479 0.981165 116.495 0.949219C116.453 0.876976 116.46 0.861306 116.522 0.893555C116.688 0.558816 116.798 0.346789 116.825 0.31543C116.858 0.275239 116.959 0.245212 117.161 0.222656C117.167 0.18584 117.176 0.159656 117.188 0.15332C117.197 0.15332 117.742 0.136699 118.505 0.117188C118.588 0.0584351 118.779 0.0498095 119.208 0.0498047ZM13.6514 14.873C13.2051 13.7755 11.7023 13.7527 11.127 14.8271C10.9157 15.22 11.0803 15.8096 11.5264 16.2832C11.843 16.6063 12.0076 16.6874 12.3711 16.6875C12.6294 16.6875 12.9937 16.5831 13.2051 16.4561C13.7217 16.1557 13.9097 15.497 13.6514 14.873ZM182.672 13.9141C182.426 13.9141 182.203 13.9681 182.01 14.0664C181.853 14.2304 181.63 14.4511 181.455 14.6143C181.332 14.8427 181.263 15.1178 181.263 15.4277C181.263 15.5075 181.267 15.5776 181.274 15.6416C181.316 15.7092 181.361 15.7909 181.403 15.8896C181.462 16.0266 181.521 16.133 181.591 16.2207C181.613 16.244 181.637 16.2688 181.662 16.2939C181.683 16.3142 181.703 16.3333 181.722 16.3516C181.814 16.4261 181.926 16.4881 182.073 16.5488C182.174 16.5905 182.257 16.6344 182.326 16.6748C182.415 16.6845 182.52 16.6875 182.648 16.6875C183.106 16.6875 183.318 16.6179 183.6 16.3984C183.641 16.3642 183.678 16.328 183.714 16.293L183.846 16.0859C184.134 15.6208 184.127 15.0376 183.889 14.6074C183.813 14.4824 183.725 14.3737 183.627 14.2812C183.562 14.2243 183.49 14.1745 183.411 14.1338C183.343 14.0981 183.29 14.0617 183.249 14.0303C183.074 13.954 182.881 13.9141 182.672 13.9141ZM72.6533 5.42188C72.5359 5.42188 70.4107 10.0777 69.6826 11.915L69.4941 12.4004L69.835 12.4697C69.9142 12.4865 69.9801 12.5062 70.0332 12.5273H72.5352C73.7668 12.5273 74.6659 12.51 75.1855 12.4814C75.2017 12.4775 75.2188 12.4734 75.2363 12.4697C75.4358 12.4235 75.5879 12.331 75.5879 12.2617C75.5872 12.1794 75.2591 11.3715 74.8721 10.4482C74.4729 9.52398 73.8386 8.02198 73.4629 7.09766C73.0996 6.17503 72.7247 5.4246 72.6533 5.42188ZM119.455 5.20215C119.439 5.21748 119.422 5.23114 119.407 5.24414C119.316 5.40444 119.167 5.72262 119.021 6.0918C118.809 6.61167 118.433 7.51295 118.175 8.0791C118.11 8.2245 118.028 8.41138 117.934 8.62402C117.936 8.62784 117.937 8.63142 117.94 8.63379C117.972 8.67494 117.956 8.7054 117.895 8.71191C117.871 8.76587 117.846 8.82126 117.821 8.87793C117.827 8.89925 117.819 8.91599 117.799 8.92871C117.663 9.23849 117.514 9.58354 117.365 9.92773C117.364 9.93788 117.361 9.94615 117.354 9.9541C117.225 10.2544 117.094 10.553 116.978 10.8291L116.521 11.874C116.535 11.9064 116.523 11.9306 116.491 11.9424L116.237 12.5273H122.695L122.613 12.2158C122.611 12.2046 122.605 12.1902 122.6 12.1719C122.573 12.1608 122.567 12.1412 122.584 12.1191C122.508 11.8986 122.3 11.3994 122.035 10.793C121.976 10.7884 121.959 10.7577 122.003 10.7256C122.004 10.7246 122.004 10.7227 122.005 10.7217C121.901 10.4851 121.789 10.234 121.674 9.97754C121.66 9.96912 121.656 9.95466 121.656 9.93555C121.646 9.91385 121.637 9.89187 121.627 9.87012C121.61 9.83093 121.592 9.79115 121.574 9.75098C121.514 9.74363 121.492 9.71568 121.533 9.68555C121.536 9.68157 121.537 9.67602 121.539 9.66992C121.405 9.36683 121.26 9.03989 121.115 8.71094C121.078 8.70302 121.062 8.67311 121.077 8.62598C120.716 7.80503 120.356 6.98317 120.148 6.49805C120.139 6.48902 120.135 6.47915 120.134 6.46484C119.837 5.78909 119.57 5.23369 119.502 5.14648C119.488 5.16481 119.473 5.18409 119.455 5.20215ZM173.924 4.44043C173.823 4.44045 173.724 4.45061 173.628 4.4707C173.603 4.47899 173.578 4.49095 173.549 4.49805C172.774 4.68291 172.304 5.59535 172.621 6.32324C172.856 6.87769 173.337 7.21278 173.889 7.21289C175.262 7.21289 175.838 5.7801 174.852 4.80957C174.794 4.75265 174.741 4.69572 174.691 4.64453C174.47 4.51466 174.209 4.44043 173.924 4.44043ZM21.0723 4.55566C20.5322 4.55566 20.0863 4.92523 19.9336 5.49121C19.7575 6.13823 19.9568 6.60098 20.5791 6.9707C20.8963 7.15534 21.6597 7.05082 21.9531 6.78516C22.9154 5.95327 22.3518 4.55579 21.0723 4.55566Z" fill="url(#paint0_linear_36_913)"/>
<defs>
<linearGradient id="paint0_linear_36_913" x1="183.768" y1="12.6088" x2="184.668" y2="12.6088" gradientUnits="userSpaceOnUse">
<stop stop-color="#FF232A"/>
<stop offset="1" stop-color="#F72229"/>
</linearGradient>
</defs>
</svg>
